<svg version="1.1" id="Layer_1" xmlns="http://www.w3.org/2000/svg" xmlns:xlink="http://www.w3.org/1999/xlink" width="100" height="100" viewBox="0 0 100 100" xml:space="preserve">
<path fill="#fff" opacity="1.000000" stroke="none" 
	d="
M63.000000,97.000000 
	C43.000000,97.000000 23.499672,96.946465 4.000406,97.066200 
	C1.498635,97.081566 0.926800,96.500229 0.935161,93.999786 
	C1.035474,64.000122 1.035474,33.999882 0.935161,4.000217 
	C0.926800,1.499774 1.499774,0.926800 4.000217,0.935161 
	C33.999882,1.035473 64.000122,1.035474 93.999786,0.935161 
	C96.500229,0.926800 97.073204,1.499774 97.064842,4.000217 
	C96.964531,33.999882 96.964531,64.000122 97.064842,93.999786 
	C97.073204,96.500229 96.505112,97.108902 93.998894,97.068352 
	C83.834892,96.903862 73.666664,97.000000 63.000000,97.000000 
z"/>
<path fill="#FE9802" opacity="1.000000" stroke="none" 
	d="
M77.267555,32.609272 
	C73.168282,37.114269 69.144730,41.248394 64.977158,45.692368 
	C60.203503,53.592941 53.853664,59.494419 46.316689,64.685791 
	C39.553082,71.156319 33.103382,77.479431 26.318609,83.820236 
	C21.077000,81.207321 17.007490,77.730583 14.380041,72.295227 
	C19.725863,64.897720 26.748041,59.187420 33.022831,52.307228 
	C37.796898,44.406925 44.146576,38.505169 51.683907,33.314056 
	C56.128883,29.148714 60.259979,25.130835 64.697998,20.960899 
	C69.780090,21.063410 76.103928,26.921450 77.267555,32.609272 
z"/>
<path fill="#41A4F4" opacity="1.000000" stroke="none" 
	d="
M51.704071,33.033180 
	C51.937050,36.075325 49.382057,37.212540 47.706402,38.829624 
	C43.124226,43.251629 39.214905,48.392620 33.512299,51.997131 
	C25.826269,44.546631 18.584099,36.995056 11.086078,29.706694 
	C8.823638,27.507519 8.897443,26.317993 11.142808,24.251766 
	C15.543030,20.202593 19.881254,16.037458 23.806496,11.537682 
	C26.451643,8.505366 28.165342,8.943551 30.311565,11.764998 
	C31.307388,13.074118 32.611485,14.148742 33.907738,15.637874 
	C34.077770,16.912952 33.543522,18.269476 35.739738,17.971912 
	C37.297356,19.093327 38.540421,20.224157 39.905647,21.648823 
	C40.172386,25.479342 36.745258,26.497952 35.431107,28.575369 
	C37.324451,27.316893 38.345516,24.367764 41.708527,23.958164 
	C43.298141,25.079510 44.547703,26.216841 45.918461,27.650126 
	C46.077770,28.912956 45.543518,30.269478 47.739738,29.971912 
	C49.172977,30.941586 50.291668,31.920673 51.704071,33.033180 
z"/>
<path fill="#41A4F4" opacity="1.000000" stroke="none" 
	d="
M46.311699,64.978714 
	C46.066273,61.925709 48.617542,60.784348 50.294437,59.166500 
	C54.876888,54.745422 58.785915,49.604973 64.487190,46.000866 
	C65.826408,47.119102 66.819672,48.235981 67.934181,49.651512 
	C68.080330,50.920189 67.546524,52.266613 69.741562,51.978764 
	C71.309494,53.099842 72.563095,54.228573 73.936401,55.653648 
	C74.350258,58.801842 72.148842,60.193069 70.654663,61.825745 
	C72.181274,60.673016 73.182396,58.620594 75.720886,58.022568 
	C77.312538,59.096878 78.571396,60.225876 79.946716,61.653305 
	C79.557846,64.020065 80.399910,64.887039 82.780731,64.747910 
	C89.702156,70.801765 89.702637,70.802246 83.404747,77.098595 
	C80.107590,80.394936 76.684753,83.577072 73.556221,87.026245 
	C71.658043,89.118965 70.475525,89.135605 68.472290,87.063713 
	C61.298512,79.644089 53.921051,72.421402 46.311699,64.978714 
z"/>
<path fill="#B2BCC1" opacity="1.000000" stroke="none" 
	d="
M77.486313,32.853249 
	C73.333405,29.025171 69.474983,25.070200 65.310745,20.962038 
	C66.792084,18.914324 68.579247,17.019802 70.673019,14.994358 
	C75.821716,15.033444 82.194069,20.954208 83.208351,26.685421 
	C81.332764,28.943947 79.556778,30.835154 77.486313,32.853249 
z"/>
<path fill="#E57373" opacity="1.000000" stroke="none" 
	d="
M83.427246,26.907242 
	C79.249214,23.120564 75.389687,19.188391 71.254883,15.059826 
	C75.211739,9.980004 76.893761,9.636718 80.410072,12.938747 
	C88.751297,20.771666 88.938217,21.546263 83.427246,26.907242 
z"/>
<path fill="#FCBE08" opacity="1.000000" stroke="none" 
	d="
M14.087833,72.396652 
	C19.084103,74.662224 22.574095,78.804901 25.907158,83.514542 
	C23.585012,83.804047 21.484287,85.602661 18.584375,84.966934 
	C15.077185,85.001617 13.636791,82.965179 12.357334,80.185349 
	C12.771960,77.526985 13.392907,75.152649 14.087833,72.396652 
z"/>
<path fill="#1768C2" opacity="1.000000" stroke="none" 
	d="
M75.973831,57.679298 
	C74.797096,61.574776 71.529129,63.449379 69.072922,66.015709 
	C68.179062,66.949654 67.059471,67.067963 66.053520,66.026375 
	C64.971603,64.906105 65.509033,63.923237 66.390213,63.055473 
	C68.720734,60.760452 71.086212,58.500923 73.746948,56.088631 
	C74.668739,56.430237 75.281364,56.910477 75.973831,57.679298 
z"/>
<path fill="#1666C1" opacity="1.000000" stroke="none" 
	d="
M41.963722,23.655243 
	C40.370445,26.854359 37.615494,28.779587 35.387951,31.187866 
	C34.457668,32.193630 33.392567,33.129066 32.101463,31.650251 
	C30.802071,30.161940 32.082596,29.235111 32.980423,28.345758 
	C35.084690,26.261349 37.258724,24.247374 39.716164,22.073769 
	C40.644833,22.417871 41.261845,22.893089 41.963722,23.655243 
z"/>
<path fill="#196BC5" opacity="1.000000" stroke="none" 
	d="
M82.973427,64.558792 
	C81.953407,65.766838 80.807495,66.679428 79.688660,67.624069 
	C78.648758,68.502083 77.579781,69.396873 76.258392,68.212067 
	C74.581779,66.708733 75.878738,65.600624 76.911491,64.549728 
	C77.711830,63.735329 78.601341,63.008564 79.757195,62.097290 
	C80.995239,62.726925 81.927292,63.502117 82.973427,64.558792 
z"/>
<path fill="#3D4B4D" opacity="1.000000" stroke="none" 
	d="
M12.085427,80.284836 
	C15.013840,80.152557 15.958274,82.876114 18.028202,84.651779 
	C16.257147,86.117004 14.256176,87.835526 12.009528,86.146553 
	C9.889688,84.552902 12.214432,82.515862 12.085427,80.284836 
z"/>
<path fill="#1667C2" opacity="1.000000" stroke="none" 
	d="
M35.971519,17.673866 
	C35.989113,18.114878 35.955490,18.293468 35.853985,18.415678 
	C34.517094,20.025229 33.532993,22.130688 31.101480,22.295164 
	C30.657671,22.325186 29.762894,21.505270 29.744987,21.051323 
	C29.644287,18.498587 31.964090,17.654100 33.736572,16.076912 
	C34.656017,16.425797 35.272385,16.905518 35.971519,17.673866 
z"/>
<path fill="#1667C2" opacity="1.000000" stroke="none" 
	d="
M47.971519,29.673866 
	C47.989109,30.114876 47.955486,30.293467 47.853981,30.415678 
	C46.517097,32.025234 45.532997,34.130695 43.101479,34.295166 
	C42.657669,34.325188 41.762897,33.505276 41.744991,33.051323 
	C41.644279,30.498579 43.964088,29.654100 45.736572,28.076914 
	C46.656021,28.425798 47.272385,28.905518 47.971519,29.673866 
z"/>
<path fill="#1667C2" opacity="1.000000" stroke="none" 
	d="
M69.975128,51.682529 
	C69.993553,52.124966 69.963020,52.304031 69.864067,52.428860 
	C68.559021,54.075108 67.562653,56.163780 65.118225,56.314613 
	C64.669678,56.342289 63.772835,55.525021 63.756428,55.073311 
	C63.663754,52.521572 65.995949,51.680744 67.753601,50.084145 
	C68.668404,50.431423 69.281380,50.912685 69.975128,51.682529 
z"/>
</svg>