<svg version="1.1" id="Layer_1" xmlns="http://www.w3.org/2000/svg" xmlns:xlink="http://www.w3.org/1999/xlink" x="0px" y="0px"
	 width="100%" viewBox="0 0 1024 1024" xml:space="preserve">
<path fill="none" opacity="1.000000" stroke="none" 
	d="
M470.000000,1025.000000 
	C313.333344,1025.000000 157.166672,1025.000000 1.000000,1025.000000 
	C1.000000,683.666687 1.000000,342.333344 1.000000,1.000000 
	C342.333344,1.000000 683.666687,1.000000 1025.000000,1.000000 
	C1025.000000,342.333344 1025.000000,683.666687 1025.000000,1025.000000 
	C840.166687,1025.000000 655.333313,1025.000000 470.000000,1025.000000 
M520.408142,481.017792 
	C520.179993,481.309937 519.951843,481.602081 519.149536,482.231659 
	C516.740356,485.421967 514.331116,488.612305 511.319305,492.156708 
	C509.492920,493.911346 507.553711,495.564392 505.863159,497.441345 
	C502.111420,501.606842 498.484375,505.884644 494.213898,510.299500 
	C493.783417,511.196228 493.352936,512.093018 492.988464,512.986633 
	C492.988464,512.986633 492.958435,512.927795 492.322113,513.241455 
	C491.527863,515.141174 490.733612,517.040894 489.255920,519.307861 
	C488.503967,522.765747 487.125885,526.218872 487.099823,529.682190 
	C486.902588,555.904297 486.957245,582.128296 486.988770,608.351685 
	C486.990631,609.905884 487.470459,611.459534 488.010132,613.466492 
	C488.530884,613.247925 489.051636,613.029358 490.009247,612.492188 
	C490.298767,612.281982 490.588257,612.071716 491.585724,611.949707 
	C493.126892,610.765015 494.816193,609.729614 496.184723,608.371033 
	C503.818085,600.793335 511.504333,593.261658 518.913391,585.467834 
	C524.517700,579.572510 530.957703,574.239990 533.908997,565.318115 
	C535.203186,561.832153 536.497375,558.346252 537.974426,554.060120 
	C538.570374,550.321960 539.166260,546.583740 540.001770,541.961182 
	C540.022339,530.353394 540.042908,518.745605 540.574768,506.917816 
	C540.336304,506.315369 540.097839,505.712921 540.072083,504.172424 
	C540.077148,491.438293 540.111023,478.703979 540.045715,465.970215 
	C540.038574,464.591919 539.457214,463.216614 538.779480,461.271637 
	C537.467346,462.434692 536.155212,463.597717 534.329590,465.051392 
	C533.852356,465.665588 533.375122,466.279785 532.870300,466.909637 
	C532.870300,466.909637 532.855286,466.881714 532.244934,467.123138 
	C531.781982,468.055481 531.318970,468.987823 530.899719,469.980652 
	C530.899719,469.980652 530.960083,469.936707 530.417786,470.029327 
	C530.257385,470.339874 530.096985,470.650421 529.946350,470.883118 
	C529.946350,470.883118 529.868835,470.870789 529.314453,471.068573 
	C528.832642,471.670410 528.350891,472.272217 527.886108,472.949951 
	C527.886108,472.949951 527.962402,472.934784 527.421631,473.033112 
	C527.259705,473.343079 527.097717,473.653046 526.946106,473.877045 
	C526.946106,473.877045 526.860535,473.863739 526.268433,474.105347 
	C525.134583,475.354980 524.000793,476.604584 522.914185,477.868347 
	C522.914185,477.868347 522.874146,477.897125 522.289429,478.150330 
	C522.167542,478.758118 522.045654,479.365906 521.987122,479.993591 
	C521.987122,479.993591 521.961792,479.932098 521.412720,480.020386 
	C521.252686,480.334686 521.092590,480.648987 520.986877,480.999176 
	C520.986877,480.999176 520.969177,480.936432 520.408142,481.017792 
M461.458984,494.931885 
	C461.778168,494.762390 461.899139,494.501251 461.987427,493.441162 
	C465.622223,489.632294 469.257050,485.823456 473.209991,481.412445 
	C477.354156,477.246643 481.528534,473.110352 485.634766,468.907501 
	C490.711975,463.710907 495.732605,458.459045 501.396729,453.053802 
	C501.617035,452.713165 501.837372,452.372559 501.995758,452.017334 
	C501.995758,452.017334 502.036163,452.066498 502.575470,451.962982 
	C502.739014,451.653564 502.902557,451.344177 503.005676,451.006714 
	C503.005676,451.006714 503.035278,451.066406 503.575653,450.962982 
	C503.740326,450.653198 503.904999,450.343384 504.058197,450.116486 
	C504.058197,450.116486 504.140778,450.130035 504.733246,449.850189 
	C506.528229,447.943726 508.323212,446.037262 510.102936,444.055573 
	C510.102936,444.055573 510.027527,444.069824 510.545654,443.951172 
	C510.747162,443.671478 510.948669,443.391785 511.615692,443.037140 
	C511.615692,443.037140 512.071472,442.916321 512.692993,442.797852 
	C513.858948,441.572540 515.024841,440.347229 516.754578,438.862671 
	C517.845276,437.657745 518.935974,436.452820 520.621155,434.891388 
	C525.779663,430.104462 530.938232,425.317535 536.096741,420.530640 
	C536.068787,420.108124 536.040833,419.685638 536.012878,419.263123 
	C533.659119,419.212982 531.305298,419.162872 528.593384,418.943451 
	C528.593384,418.943451 528.201538,418.884949 527.664734,418.187378 
	C512.068359,418.115692 496.472046,418.031738 480.875580,418.011627 
	C480.159546,418.010712 479.442780,418.583618 478.323944,418.926453 
	C478.323944,418.926453 477.941162,419.055878 477.013947,418.979340 
	C468.528412,418.966309 460.021729,419.325134 451.562805,418.844025 
	C441.474243,418.270142 431.775391,415.921753 423.023590,410.419830 
	C409.695343,402.040924 399.904663,389.971466 389.457825,378.584473 
	C385.926849,374.735718 382.599152,370.700409 378.817352,366.181793 
	C376.676117,364.426910 374.306427,362.885284 372.433868,360.879547 
	C364.991699,352.907990 358.155334,344.309875 350.216278,336.882629 
	C343.969757,331.038788 336.089111,327.388611 326.715118,326.164429 
	C305.877869,326.489563 285.040619,326.814697 263.463654,327.044312 
	C263.506805,327.752380 263.260284,328.742462 263.635193,329.127563 
	C275.044556,340.847992 286.514984,352.508942 298.236115,364.783569 
	C302.135742,368.573730 306.035339,372.363892 310.257019,376.783051 
	C312.175995,379.055664 313.930267,381.495483 316.040283,383.574188 
	C331.636597,398.939178 347.373169,414.162231 362.921783,429.575043 
	C371.730927,438.307190 380.268433,447.313385 389.140533,456.829590 
	C389.987793,457.621063 390.860046,458.387604 391.678619,459.207703 
	C407.962921,475.522705 424.247192,491.837769 440.510864,508.173279 
	C442.179321,509.849121 443.707855,511.703217 446.692902,508.922394 
	C448.191620,507.327087 449.690308,505.731781 451.101746,504.109589 
	C451.101746,504.109589 451.134888,504.194641 451.671936,503.938629 
	C452.179260,503.339905 452.686584,502.741180 453.135651,502.041229 
	C453.135651,502.041229 453.034607,502.099884 453.587280,501.986176 
	C453.749359,501.666779 453.911438,501.347382 454.031647,501.145142 
	C454.031647,501.145142 454.147736,501.189819 454.753723,500.892334 
	C456.562531,499.311157 458.371338,497.729980 460.135681,496.036591 
	C460.135681,496.036591 460.022736,496.079163 460.567688,495.967133 
	C460.753754,495.659973 460.939819,495.352814 461.052551,495.011200 
	C461.052551,495.011200 461.020569,495.085663 461.458984,494.931885 
M674.605408,423.997314 
	C674.766663,423.678253 674.927979,423.359192 675.054321,423.176300 
	C675.054321,423.176300 675.189453,423.215057 675.765747,422.973694 
	C676.569763,422.046875 677.373840,421.120026 678.089661,420.056580 
	C678.089661,420.056580 678.135498,420.212646 678.630493,420.000854 
	C678.826599,419.707489 679.022705,419.414124 679.089844,419.093719 
	C679.089844,419.093719 679.194336,419.174011 679.782288,418.882080 
	C681.908386,416.660767 684.034424,414.439484 686.192688,412.191162 
	C686.192688,412.191162 686.219727,412.158966 686.803833,411.870636 
	C688.545959,409.769287 690.288086,407.667938 692.979736,404.893127 
	C693.218506,404.587250 693.457214,404.281342 693.808655,404.127869 
	C693.808655,404.127869 694.107117,403.923340 694.107117,403.923340 
	C694.107117,403.923340 694.033020,403.650665 694.746704,403.238403 
	C697.530273,400.184326 700.313782,397.130249 703.698547,393.920380 
	C704.530090,393.011536 705.361633,392.102722 706.000000,391.000000 
	C706.000000,391.000000 706.193176,391.194153 706.718018,390.953339 
	C707.204834,390.370605 707.691589,389.787842 708.086487,389.081757 
	C708.086487,389.081757 708.207947,389.176147 708.730713,388.941040 
	C709.215393,388.361755 709.700134,387.782440 710.097412,387.038483 
	C710.097412,387.038483 710.147888,387.217926 710.641052,387.007690 
	C710.836548,386.715637 711.032043,386.423584 711.092651,386.103973 
	C711.092651,386.103973 711.204102,386.184692 711.725098,385.946838 
	C712.208496,385.369080 712.691956,384.791321 713.162659,384.044830 
	C713.162659,384.044830 713.154663,384.209717 713.643555,384.008972 
	C713.832153,383.719269 714.020813,383.429565 714.120117,383.119324 
	C714.120117,383.119324 714.157471,383.203003 714.646240,383.006561 
	C714.834351,382.717926 715.022461,382.429291 715.141663,382.194611 
	C715.141663,382.194611 715.226624,382.164520 715.791992,381.892822 
	C716.921997,380.665527 718.052002,379.438232 719.097534,378.094421 
	C719.097534,378.094421 719.213562,378.179565 719.804199,377.886261 
	C723.217163,374.491882 726.708496,371.172119 730.025696,367.686646 
	C735.869446,361.546600 741.450500,355.149445 747.432617,349.150269 
	C753.441650,343.124054 759.888428,337.535828 765.951721,331.561249 
	C767.330322,330.202911 767.920410,328.044373 768.873474,326.254181 
	C767.040894,325.796875 765.209534,324.946533 763.375610,324.941193 
	C735.723694,324.860474 708.071533,324.885071 680.419373,324.896423 
	C628.097229,324.917908 575.775146,324.939484 523.453064,325.008148 
	C521.905396,325.010193 520.358337,325.539612 518.296692,325.902039 
	C518.132324,325.957306 517.967896,326.012604 517.093445,325.989166 
	C516.143311,326.030212 515.193237,326.071259 513.411743,325.790253 
	C512.019287,325.487274 510.624664,324.910309 509.234619,324.921173 
	C469.762604,325.228790 430.290985,325.595215 390.819366,325.955750 
	C389.989166,325.963318 388.702667,325.705566 388.428314,326.111603 
	C387.920807,326.862701 388.006073,328.014252 388.007935,329.730896 
	C388.456268,330.757843 388.657654,332.026855 389.390686,332.774780 
	C397.908020,341.465424 406.561676,350.022644 415.064056,358.727753 
	C421.779510,365.603333 428.394989,372.579437 434.940552,379.617188 
	C439.274658,384.277191 444.697845,385.968048 451.332550,386.802521 
	C465.865051,386.835358 480.397583,386.868195 495.361359,387.005188 
	C495.361359,387.005188 495.798187,387.082703 496.310791,387.807556 
	C520.867432,387.846893 545.424072,387.886230 570.629822,388.261383 
	C574.862793,391.511780 579.622742,394.274048 583.197754,398.133850 
	C587.857544,403.164764 588.098450,411.669830 584.883850,416.372528 
	C582.784607,419.443512 580.821411,422.607452 578.813843,425.831451 
	C578.813843,425.831451 578.916809,425.834045 578.380859,425.989990 
	C578.206238,426.303558 578.031555,426.617126 577.940430,426.914978 
	C577.940430,426.914978 577.916016,426.833588 577.380493,426.990204 
	C577.208130,427.304382 577.035828,427.618530 576.898315,427.821747 
	C576.898315,427.821747 576.787109,427.787506 576.218079,428.088226 
	C575.755737,428.988281 575.293396,429.888336 574.254761,431.270905 
	C570.992188,433.410553 570.742126,436.533844 570.762939,440.144257 
	C570.905029,464.741882 570.842651,489.340759 570.841797,513.939209 
	C570.841736,517.096924 570.777771,520.255127 570.819824,523.412109 
	C570.839172,524.862122 571.043457,526.309631 571.163879,527.758301 
	C572.541748,526.868164 573.919617,525.977966 575.755371,524.848328 
	C576.196350,524.328125 576.637268,523.807861 577.572876,522.971313 
	C577.813110,522.664734 578.053345,522.358154 578.886780,521.711365 
	C581.623108,518.172668 584.359497,514.634033 587.558289,510.881073 
	C587.738159,510.600220 587.918091,510.319336 588.029480,510.022888 
	C588.029480,510.022888 588.030701,510.093109 588.652344,509.781403 
	C593.053284,505.762360 597.580322,501.870544 601.809387,497.678040 
	C604.484070,495.026489 606.714172,491.926392 609.854736,488.946533 
	C611.214722,488.106567 612.833984,487.511444 613.894348,486.388550 
	C624.041016,475.643921 633.988892,464.710266 644.208069,454.035950 
	C651.366394,446.558746 658.858093,439.400696 666.780701,431.856323 
	C667.920898,430.633789 669.061096,429.411285 670.159851,428.079102 
	C670.159851,428.079102 670.050415,428.121185 670.601074,427.996094 
	C670.764526,427.676056 670.927917,427.356049 671.019836,427.069702 
	C671.019836,427.069702 671.057007,427.139496 671.603088,426.997711 
	C671.764771,426.677582 671.926453,426.357452 672.021973,426.069733 
	C672.021973,426.069733 672.057861,426.134094 672.604492,425.996582 
	C672.765625,425.676544 672.926697,425.356476 673.021484,425.068787 
	C673.021484,425.068787 673.057312,425.133240 673.603882,424.996429 
	C673.765564,424.676971 673.927246,424.357513 674.023499,424.069153 
	C674.023499,424.069153 674.059143,424.132294 674.605408,423.997314 
z"/>
<path fill="#A5C72E" opacity="1.000000" stroke="none" 
	d="
M703.097351,394.076172 
	C700.313782,397.130249 697.530273,400.184326 694.367981,403.463898 
	C693.989258,403.689392 693.695984,403.975464 693.695984,403.975464 
	C693.457214,404.281342 693.218506,404.587250 692.279358,405.324280 
	C689.792542,407.889954 688.006165,410.024475 686.219727,412.158966 
	C686.219727,412.158966 686.192688,412.191162 685.826782,412.190948 
	C683.372070,414.518494 681.283203,416.846252 679.194336,419.174011 
	C679.194336,419.174011 679.089844,419.093719 678.919128,419.229980 
	C678.544067,419.648376 678.339783,419.930511 678.135498,420.212646 
	C678.135498,420.212646 678.089661,420.056580 677.794189,420.108032 
	C676.637817,420.455994 675.776794,420.752563 674.628784,420.865906 
	C672.816406,419.042847 670.986572,417.592926 669.822693,415.727570 
	C666.354858,410.169403 663.691162,404.023895 659.690735,398.907257 
	C655.511841,393.562378 649.258789,389.733704 648.789795,381.604309 
	C650.723145,373.122345 649.357910,365.337891 646.156860,357.996338 
	C640.528503,345.087585 628.960266,341.070496 616.270813,339.050354 
	C614.161377,338.714508 612.045776,338.417786 609.645813,337.838623 
	C606.591370,337.743805 603.824097,337.913330 600.663818,338.086060 
	C599.481995,338.086823 598.693176,338.084442 597.608521,337.816284 
	C590.711731,337.481232 584.950928,335.372894 580.441040,330.755981 
	C581.289795,329.148468 582.074768,327.661682 583.339111,326.120911 
	C600.628296,326.052246 617.438232,326.049194 634.248108,326.018127 
	C643.370544,326.001251 652.790710,324.633789 659.909241,332.509460 
	C659.744812,332.788513 659.270142,333.593933 659.270264,333.593719 
	C661.396301,335.235962 663.334473,336.300079 664.672913,337.874084 
	C666.439270,339.951202 667.700867,342.451508 669.242310,344.727356 
	C670.995117,347.315094 672.890686,349.808411 674.587341,352.431335 
	C676.084839,354.746429 676.983887,357.585785 678.858398,359.495697 
	C686.377930,367.157501 692.415649,375.668274 696.400513,385.721436 
	C697.007263,387.252258 700.079102,387.977570 702.148132,388.658142 
	C702.814514,388.877319 704.388428,387.974182 704.743164,387.210846 
	C706.039429,384.421600 707.110107,381.511627 708.062134,378.580963 
	C712.913147,363.647888 717.700500,348.694122 722.364502,334.199860 
	C711.569824,331.843079 701.401062,329.622955 691.232300,327.402802 
	C691.319458,326.948883 691.406616,326.494934 691.493774,326.040985 
	C701.469177,326.040985 711.445801,325.954224 721.419556,326.084656 
	C725.290222,326.135284 727.157593,330.461395 725.805115,332.742523 
	C727.449036,336.112091 729.365112,338.602051 729.839478,341.341614 
	C730.590454,345.678802 730.284180,350.189545 730.593262,354.615143 
	C730.979858,360.150604 730.188599,365.180145 726.132751,369.448120 
	C723.584961,372.129150 721.503967,375.253906 719.213562,378.179565 
	C719.213562,378.179565 719.097534,378.094421 718.784546,378.139038 
	C717.389893,379.510590 716.308289,380.837555 715.226624,382.164520 
	C715.226624,382.164520 715.141663,382.194611 714.945251,382.284424 
	C714.551697,382.650513 714.354614,382.926758 714.157471,383.203003 
	C714.157471,383.203003 714.120117,383.119324 713.933411,383.247864 
	C713.549377,383.654175 713.352051,383.931946 713.154663,384.209717 
	C713.154663,384.209717 713.162659,384.044830 712.839966,384.136230 
	C712.079529,384.879974 711.641846,385.532318 711.204102,386.184692 
	C711.204102,386.184692 711.092651,386.103973 710.922729,386.236115 
	C710.551208,386.651489 710.349548,386.934723 710.147888,387.217926 
	C710.147888,387.217926 710.097412,387.038483 709.811768,387.130493 
	C709.086731,387.873688 708.647339,388.524902 708.207947,389.176147 
	C708.207947,389.176147 708.086487,389.081757 707.802124,389.153992 
	C707.076172,389.882172 706.634644,390.538147 706.193115,391.194153 
	C706.193176,391.194153 706.000000,391.000000 705.746216,391.087036 
	C704.694031,392.141418 703.895691,393.108795 703.097351,394.076172 
z"/>
<path fill="#37A646" opacity="1.000000" stroke="none" 
	d="
M578.797302,425.729797 
	C580.821411,422.607452 582.784607,419.443512 584.883850,416.372528 
	C588.098450,411.669830 587.857544,403.164764 583.197754,398.133850 
	C579.622742,394.274048 574.862793,391.511780 570.112488,387.822144 
	C565.761963,384.176422 560.885254,381.790039 560.984253,375.635681 
	C561.091492,368.968750 556.918152,364.038696 553.301453,359.188843 
	C552.058411,357.522003 548.310669,357.634430 545.669373,357.133392 
	C544.167236,356.848419 542.588745,356.966614 541.318115,356.682129 
	C550.332764,353.672455 559.018921,350.693024 567.831360,348.151398 
	C575.901733,345.823883 584.067993,343.784729 592.273010,341.988403 
	C596.056030,341.160187 600.032288,341.214355 603.920898,340.868439 
	C603.955261,341.579163 603.989563,342.289856 604.023926,343.000580 
	C601.820496,343.000580 599.569458,342.724915 597.429993,343.094940 
	C595.937866,343.353027 594.598694,344.495941 593.191162,345.243591 
	C594.359497,346.167206 595.449280,347.223572 596.719604,347.974762 
	C597.844727,348.640045 599.170593,348.965942 601.226746,349.756561 
	C591.606812,352.981537 591.218140,355.436310 597.441956,362.156403 
	C599.289917,364.151733 599.995911,367.287842 600.960938,369.995392 
	C602.005249,372.925354 602.308594,376.184601 603.693726,378.915466 
	C607.535889,386.490662 611.850342,393.824921 615.808289,401.343750 
	C617.092651,403.783539 617.675110,406.586090 618.889465,409.070801 
	C621.236267,413.872620 627.305481,416.293823 627.544006,422.536469 
	C627.568604,423.181091 628.643311,423.732605 629.075134,424.424438 
	C630.448425,426.624817 631.748230,428.871124 633.075684,431.323517 
	C633.074951,431.547363 633.030823,431.992889 632.824097,432.145599 
	C632.444092,432.590790 632.270935,432.883301 632.033203,433.532654 
	C628.008423,442.264893 624.048218,450.640259 619.776917,459.195923 
	C618.983093,460.908447 618.500305,462.440613 617.973755,464.243530 
	C617.897095,464.694061 617.864258,464.873932 617.670776,465.165344 
	C617.310791,465.452148 617.155334,465.660156 617.013733,465.933350 
	C616.983826,465.965820 616.915955,466.022247 616.593933,466.106934 
	C613.849915,469.793976 611.427917,473.396332 609.010071,476.619202 
	C611.004822,471.409363 610.580872,467.790100 604.586365,466.414276 
	C603.716858,466.214691 603.178894,464.351013 602.585266,463.206696 
	C600.092957,458.402832 597.879883,453.435242 595.112122,448.797638 
	C590.996277,441.901093 584.357910,436.269135 584.912476,427.135345 
	C584.980286,426.019257 584.115906,424.846619 583.672668,423.671234 
	C581.729553,424.491699 580.263428,425.110748 578.797302,425.729797 
M584.501831,421.551941 
	C584.501831,421.551941 584.474487,421.489624 584.501831,421.551941 
z"/>
<path fill="#75BC3C" opacity="1.000000" stroke="none" 
	d="
M582.859741,326.174866 
	C582.074768,327.661682 581.289795,329.148468 580.441040,330.755981 
	C584.950928,335.372894 590.711731,337.481232 597.150818,337.834717 
	C586.733093,338.674194 576.438171,338.844940 566.230957,339.879791 
	C552.743896,341.247162 539.313538,343.205566 525.881958,345.076752 
	C517.562012,346.235809 509.285187,347.704529 500.544556,349.042480 
	C497.785461,349.202515 495.460052,349.259308 493.157928,349.521057 
	C473.986969,351.700653 454.768646,352.686981 435.841949,348.214142 
	C426.054382,345.901093 416.623352,342.079468 406.725708,338.751556 
	C404.362000,337.573151 402.276489,336.634949 400.251282,335.580994 
	C396.098572,333.419891 391.978149,331.196655 387.844452,328.999023 
	C388.006073,328.014252 387.920807,326.862701 388.428314,326.111603 
	C388.702667,325.705566 389.989166,325.963318 390.819366,325.955750 
	C430.290985,325.595215 469.762604,325.228790 509.234619,324.921173 
	C510.624664,324.910309 512.019287,325.487274 514.026001,326.162109 
	C515.694702,326.378632 516.749084,326.223267 517.803528,326.067902 
	C517.967896,326.012604 518.132324,325.957306 519.025574,325.937164 
	C540.789551,326.039825 561.824646,326.107330 582.859741,326.174866 
z"/>
<path fill="#4DC1E8" opacity="1.000000" stroke="none" 
	d="
M388.928284,456.196136 
	C380.268433,447.313385 371.730927,438.307190 362.921783,429.575043 
	C347.373169,414.162231 331.636597,398.939178 316.040283,383.574188 
	C313.930267,381.495483 312.175995,379.055664 310.339050,376.213440 
	C311.158295,375.298584 312.009766,375.090363 312.614349,374.586090 
	C317.000763,370.927704 321.216980,367.003662 327.195282,366.048309 
	C327.203522,366.046936 327.067902,365.145172 327.338287,364.772705 
	C338.037659,374.098663 348.378479,383.338196 358.764954,392.526154 
	C367.039368,399.845825 375.369446,407.102539 383.904175,414.628601 
	C394.721924,423.140717 406.691589,428.677124 419.060913,432.841736 
	C417.631805,436.889435 416.543549,440.788391 415.543579,444.709869 
	C415.446716,445.089600 415.767273,445.823151 416.112000,446.030945 
	C421.176514,449.083252 418.722687,455.507904 422.091278,459.322571 
	C422.469635,459.750977 422.522644,460.564575 422.533295,461.202820 
	C422.579163,463.947083 422.552887,466.692566 422.552887,469.437592 
	C422.965302,469.571106 423.377686,469.704590 423.790100,469.838104 
	C422.038177,471.292328 420.286224,472.746521 418.206940,474.197083 
	C416.586029,473.462341 415.292511,472.731262 414.191376,471.804504 
	C414.256683,470.739838 414.129578,469.870819 414.248199,468.950409 
	C414.787140,468.580505 415.080322,468.261993 415.373474,467.943481 
	C415.259125,467.838898 415.144775,467.734344 415.030457,467.629761 
	C414.686371,468.085754 414.342285,468.541748 413.655334,469.009430 
	C412.515259,469.389984 411.718018,469.758820 410.588959,470.025208 
	C404.103302,465.498627 397.973541,461.040100 391.762756,456.697449 
	C391.049683,456.198883 389.884064,456.347534 388.928284,456.196136 
z"/>
<path fill="#B2CE25" opacity="1.000000" stroke="none" 
	d="
M583.339111,326.120911 
	C561.824646,326.107330 540.789551,326.039825 519.282715,325.897736 
	C520.358337,325.539612 521.905396,325.010193 523.453064,325.008148 
	C575.775146,324.939484 628.097229,324.917908 680.419373,324.896423 
	C708.071533,324.885071 735.723694,324.860474 763.375610,324.941193 
	C765.209534,324.946533 767.040894,325.796875 768.873474,326.254181 
	C767.920410,328.044373 767.330322,330.202911 765.951721,331.561249 
	C759.888428,337.535828 753.441650,343.124054 747.432617,349.150269 
	C741.450500,355.149445 735.869446,361.546600 730.025696,367.686646 
	C726.708496,371.172119 723.217163,374.491882 719.508911,378.032898 
	C721.503967,375.253906 723.584961,372.129150 726.132751,369.448120 
	C730.188599,365.180145 730.979858,360.150604 730.593262,354.615143 
	C730.284180,350.189545 730.590454,345.678802 729.839478,341.341614 
	C729.365112,338.602051 727.449036,336.112091 725.805115,332.742523 
	C727.157593,330.461395 725.290222,326.135284 721.419556,326.084656 
	C711.445801,325.954224 701.469177,326.040985 691.493774,326.040985 
	C691.406616,326.494934 691.319458,326.948883 691.232300,327.402802 
	C701.401062,329.622955 711.569824,331.843079 722.364502,334.199860 
	C717.700500,348.694122 712.913147,363.647888 708.062134,378.580963 
	C707.110107,381.511627 706.039429,384.421600 704.743164,387.210846 
	C704.388428,387.974182 702.814514,388.877319 702.148132,388.658142 
	C700.079102,387.977570 697.007263,387.252258 696.400513,385.721436 
	C692.415649,375.668274 686.377930,367.157501 678.858398,359.495697 
	C676.983887,357.585785 676.084839,354.746429 674.587341,352.431335 
	C672.890686,349.808411 670.995117,347.315094 669.242310,344.727356 
	C667.700867,342.451508 666.439270,339.951202 664.672913,337.874084 
	C663.334473,336.300079 661.396301,335.235962 659.270264,333.593719 
	C659.270142,333.593933 659.744812,332.788513 659.909241,332.509460 
	C652.790710,324.633789 643.370544,326.001251 634.248108,326.018127 
	C617.438232,326.049194 600.628296,326.052246 583.339111,326.120911 
z"/>
<path fill="#0F7AB9" opacity="1.000000" stroke="none" 
	d="
M383.674805,414.387207 
	C375.369446,407.102539 367.039368,399.845825 358.764954,392.526154 
	C348.378479,383.338196 338.037659,374.098663 327.140747,364.538269 
	C321.800812,361.055237 316.997253,357.915375 311.985565,354.512817 
	C307.503601,351.520447 303.229736,348.790771 299.198242,345.839050 
	C303.685883,346.476257 307.921875,347.387543 312.183655,348.155579 
	C313.160889,348.331696 314.226959,348.014984 315.252136,347.925110 
	C315.076141,347.033295 315.214478,345.733276 314.672882,345.316376 
	C311.298889,342.718964 312.426453,339.586182 313.059509,336.282074 
	C313.380371,334.607361 313.313416,332.278290 312.370636,331.055481 
	C310.000549,327.981384 311.492340,327.255463 314.250610,327.135620 
	C318.553436,326.948669 322.865967,326.985260 327.174408,326.927124 
	C336.089111,327.388611 343.969757,331.038788 350.216278,336.882629 
	C358.155334,344.309875 364.991699,352.907990 372.433868,360.879547 
	C374.306427,362.885284 376.676117,364.426910 379.014282,366.894287 
	C379.471405,369.517059 379.092468,372.581573 380.101227,373.140167 
	C384.759277,375.719604 385.161316,380.228180 385.840546,384.452820 
	C386.451233,388.250977 386.798096,392.322449 386.064148,396.036774 
	C385.415161,399.320953 382.842102,402.180786 381.677765,405.428497 
	C381.198395,406.765564 382.137817,408.637756 382.514404,410.247223 
	C382.840637,411.641388 383.283508,413.008270 383.674805,414.387207 
z"/>
<path fill="#149E4C" opacity="1.000000" stroke="none" 
	d="
M407.031219,338.939392 
	C416.623352,342.079468 426.054382,345.901093 435.841949,348.214142 
	C454.768646,352.686981 473.986969,351.700653 493.157928,349.521057 
	C495.460052,349.259308 497.785461,349.202515 500.651276,349.385132 
	C503.363159,351.436676 505.556458,353.114594 507.678192,354.878632 
	C513.187073,359.458832 518.803467,363.057037 526.590759,360.357269 
	C531.248108,358.742615 536.216187,358.024414 541.044617,356.903229 
	C542.588745,356.966614 544.167236,356.848419 545.669373,357.133392 
	C548.310669,357.634430 552.058411,357.522003 553.301453,359.188843 
	C556.918152,364.038696 561.091492,368.968750 560.984253,375.635681 
	C560.885254,381.790039 565.761963,384.176422 569.787964,387.654236 
	C545.424072,387.886230 520.867432,387.846893 496.535797,387.414917 
	C504.424988,387.003265 512.091370,386.869476 519.752441,387.014343 
	C523.519836,387.085541 524.645691,385.304901 523.733276,382.076508 
	C522.337097,377.136169 520.304260,372.353424 519.213013,367.357178 
	C518.500610,364.095398 516.857544,363.758270 514.271362,364.198822 
	C505.773254,365.646545 497.304291,367.295502 488.774109,368.517853 
	C474.857971,370.512054 460.968933,369.019653 447.955078,364.394501 
	C437.861633,360.807281 428.443512,355.002380 419.278107,349.295349 
	C416.115265,347.325989 413.628265,344.386078 409.722870,343.259064 
	C408.511047,342.909393 407.911224,340.438934 407.031219,338.939392 
z"/>
<path fill="#028D4D" opacity="1.000000" stroke="none" 
	d="
M406.725708,338.751556 
	C407.911224,340.438934 408.511047,342.909393 409.722870,343.259064 
	C413.628265,344.386078 416.115265,347.325989 419.278107,349.295349 
	C428.443512,355.002380 437.861633,360.807281 447.955078,364.394501 
	C460.968933,369.019653 474.857971,370.512054 488.774109,368.517853 
	C497.304291,367.295502 505.773254,365.646545 514.271362,364.198822 
	C516.857544,363.758270 518.500610,364.095398 519.213013,367.357178 
	C520.304260,372.353424 522.337097,377.136169 523.733276,382.076508 
	C524.645691,385.304901 523.519836,387.085541 519.752441,387.014343 
	C512.091370,386.869476 504.424988,387.003265 496.279480,387.052490 
	C495.798187,387.082703 495.361359,387.005188 494.815369,386.715637 
	C479.786713,386.311768 465.304047,386.197510 450.821411,386.083252 
	C444.697845,385.968048 439.274658,384.277191 434.940552,379.617188 
	C428.394989,372.579437 421.779510,365.603333 415.064056,358.727753 
	C406.561676,350.022644 397.908020,341.465424 389.390686,332.774780 
	C388.657654,332.026855 388.456268,330.757843 387.926208,329.364960 
	C391.978149,331.196655 396.098572,333.419891 400.251282,335.580994 
	C402.276489,336.634949 404.362000,337.573151 406.725708,338.751556 
z"/>
<path fill="#75BC3C" opacity="1.000000" stroke="none" 
	d="
M633.030823,431.992889 
	C633.030823,431.992889 633.074951,431.547363 633.320679,431.076721 
	C636.095459,424.666992 639.196106,418.897888 641.024292,412.750366 
	C644.029907,402.643494 646.210999,392.291412 648.739746,382.042725 
	C649.258789,389.733704 655.511841,393.562378 659.690735,398.907257 
	C663.691162,404.023895 666.354858,410.169403 669.822693,415.727570 
	C670.986572,417.592926 672.816406,419.042847 674.617065,421.233398 
	C674.991333,422.261108 675.090393,422.738068 675.189453,423.215057 
	C675.189453,423.215057 675.054321,423.176300 674.812622,423.192505 
	C674.400269,423.516571 674.229675,423.824432 674.059082,424.132263 
	C674.059143,424.132294 674.023499,424.069153 673.802612,424.145782 
	C673.406860,424.526031 673.232117,424.829651 673.057312,425.133240 
	C673.057312,425.133240 673.021484,425.068787 672.807495,425.152161 
	C672.414978,425.535034 672.236389,425.834564 672.057861,426.134094 
	C672.057861,426.134094 672.021973,426.069733 671.808533,426.154694 
	C671.415710,426.539612 671.236328,426.839539 671.057007,427.139465 
	C671.057007,427.139496 671.019836,427.069702 670.814453,427.156982 
	C670.422913,427.536560 670.236694,427.828888 670.050415,428.121216 
	C670.050415,428.121185 670.159851,428.079102 669.841797,428.063599 
	C668.416199,429.398804 667.308594,430.749481 666.200928,432.100159 
	C658.858093,439.400696 651.366394,446.558746 644.208069,454.035950 
	C633.988892,464.710266 624.041016,475.643921 613.894348,486.388550 
	C612.833984,487.511444 611.214722,488.106567 609.178406,489.030579 
	C607.547607,489.509399 606.593201,489.904236 605.638733,490.299072 
	C605.261475,489.997620 604.884155,489.696167 604.506897,489.394714 
	C606.637817,485.657135 608.860229,481.967987 610.874695,478.168640 
	C612.992126,474.174805 614.910522,470.075470 616.915894,466.022217 
	C616.915955,466.022247 616.983826,465.965820 617.182678,465.830658 
	C617.594055,465.525452 617.744019,465.311554 617.831421,465.053772 
	C617.864258,464.873932 617.897095,464.694061 618.201172,464.333954 
	C619.010925,462.441010 619.549500,460.728333 620.088013,459.015625 
	C624.048218,450.640259 628.008423,442.264893 632.231201,433.370728 
	C632.672729,432.565613 632.851807,432.279266 633.030823,431.992889 
z"/>
<path fill="#225DA0" opacity="1.000000" stroke="none" 
	d="
M383.904175,414.628601 
	C383.283508,413.008270 382.840637,411.641388 382.514404,410.247223 
	C382.137817,408.637756 381.198395,406.765564 381.677765,405.428497 
	C382.842102,402.180786 385.415161,399.320953 386.064148,396.036774 
	C386.798096,392.322449 386.451233,388.250977 385.840546,384.452820 
	C385.161316,380.228180 384.759277,375.719604 380.101227,373.140167 
	C379.092468,372.581573 379.471405,369.517059 379.194885,367.178528 
	C382.599152,370.700409 385.926849,374.735718 389.457825,378.584473 
	C399.904663,389.971466 409.695343,402.040924 423.023590,410.419830 
	C431.775391,415.921753 441.474243,418.270142 451.562805,418.844025 
	C460.021729,419.325134 468.528412,418.966309 477.153503,419.266357 
	C468.984558,419.711121 460.671509,419.764435 452.371826,420.124908 
	C450.914185,420.188171 449.512451,421.538971 448.084900,422.295166 
	C448.935181,423.881592 449.578186,425.635590 450.689941,427.010620 
	C451.983185,428.610016 453.686951,429.877472 455.806580,431.838562 
	C449.247833,433.063110 444.125977,434.019379 438.554535,435.020203 
	C431.878693,434.276276 425.652466,433.487762 419.426239,432.699249 
	C406.691589,428.677124 394.721924,423.140717 383.904175,414.628601 
z"/>
<path fill="#8DD7EB" opacity="1.000000" stroke="none" 
	d="
M528.951477,419.112732 
	C531.305298,419.162872 533.659119,419.212982 536.012878,419.263123 
	C536.040833,419.685638 536.068787,420.108124 536.096741,420.530640 
	C530.938232,425.317535 525.779663,430.104462 520.238159,434.752930 
	C519.412048,434.619476 518.851257,434.448486 518.542664,434.654724 
	C502.594543,445.313263 486.667755,456.003754 470.717133,466.731934 
	C470.695557,466.773041 470.606995,466.800964 470.362671,466.833282 
	C469.812195,466.987610 469.497620,467.081268 469.151062,466.791504 
	C469.686157,465.658936 470.118378,464.734100 470.824371,464.128296 
	C474.855713,460.669098 474.765320,459.535461 470.852203,455.737030 
	C469.937042,454.848694 469.613770,452.897827 469.720734,451.489166 
	C470.140900,445.954742 468.347565,443.608185 462.991119,442.948669 
	C461.764648,442.797699 460.603119,442.118805 458.943909,441.511688 
	C461.489685,439.877197 463.209045,438.773285 465.777435,437.124237 
	C460.638855,436.317169 456.854401,435.722748 453.501831,435.086609 
	C479.526367,432.496582 504.370453,426.423950 528.951477,419.112732 
z"/>
<path fill="#149E4C" opacity="1.000000" stroke="none" 
	d="
M578.805542,425.780640 
	C580.263428,425.110748 581.729553,424.491699 583.672668,423.671234 
	C584.115906,424.846619 584.980286,426.019257 584.912476,427.135345 
	C584.357910,436.269135 590.996277,441.901093 595.112122,448.797638 
	C597.879883,453.435242 600.092957,458.402832 602.585266,463.206696 
	C603.178894,464.351013 603.716858,466.214691 604.586365,466.414276 
	C610.580872,467.790100 611.004822,471.409363 609.007080,476.619843 
	C609.000000,476.999939 608.999390,477.006104 608.811035,477.139801 
	C608.385925,477.477081 608.200073,477.719696 607.875671,478.292297 
	C605.138916,482.391144 602.591675,486.199005 599.637695,490.005676 
	C594.091492,489.955261 590.432312,487.785797 588.386108,482.886688 
	C586.664856,478.765503 584.662781,474.760468 582.747803,470.721649 
	C579.827698,464.562897 576.875549,458.419434 573.548218,451.455688 
	C572.810303,453.129120 572.144287,453.937286 572.141846,454.747467 
	C572.073792,477.047089 572.025146,499.347260 572.199524,521.645569 
	C572.208496,522.800964 574.218872,523.940735 575.297485,525.087769 
	C573.919617,525.977966 572.541748,526.868164 571.163879,527.758301 
	C571.043457,526.309631 570.839172,524.862122 570.819824,523.412109 
	C570.777771,520.255127 570.841736,517.096924 570.841797,513.939209 
	C570.842651,489.340759 570.905029,464.741882 570.762939,440.144257 
	C570.742126,436.533844 570.992188,433.410553 574.849243,430.923523 
	C575.891602,429.646637 576.339355,428.717072 576.787109,427.787506 
	C576.787109,427.787506 576.898315,427.821747 577.103271,427.743805 
	C577.510742,427.388428 577.713379,427.110992 577.916016,426.833557 
	C577.916016,426.833588 577.940430,426.914978 578.122559,426.790466 
	C578.508728,426.388641 578.712769,426.111359 578.916809,425.834045 
	C578.916809,425.834045 578.813843,425.831451 578.805542,425.780640 
z"/>
<path fill="#225DA0" opacity="1.000000" stroke="none" 
	d="
M413.998962,472.000183 
	C415.292511,472.731262 416.586029,473.462341 418.461731,474.462280 
	C423.801422,477.063019 428.407501,479.829773 433.374725,481.559570 
	C436.236755,482.556305 440.164581,482.936005 442.773895,481.749207 
	C450.113159,478.411072 457.017853,474.117493 464.400208,470.089111 
	C465.162598,469.335449 465.618744,468.693329 466.046692,468.032379 
	C466.018524,468.013550 466.016541,468.081268 466.368713,468.234131 
	C467.451904,468.158966 468.182983,467.930908 468.874298,468.105103 
	C468.089783,472.546417 467.344971,476.585510 466.592377,480.666992 
	C469.444885,481.277222 471.168365,481.645935 472.891876,482.014618 
	C469.257050,485.823456 465.622223,489.632294 461.743134,493.923737 
	C461.329376,494.625671 461.169952,494.852112 461.020569,495.085663 
	C461.020569,495.085663 461.052551,495.011200 460.863190,495.152954 
	C460.456787,495.556183 460.239746,495.817657 460.022705,496.079163 
	C460.022736,496.079163 460.135681,496.036591 459.796875,496.080627 
	C457.687958,497.813049 455.917847,499.501434 454.147736,501.189819 
	C454.147736,501.189819 454.031647,501.145142 453.828918,501.211823 
	C453.429016,501.552307 453.231812,501.826080 453.034607,502.099884 
	C453.034607,502.099884 453.135651,502.041229 452.821289,502.097809 
	C452.049530,502.834473 451.592194,503.514526 451.134888,504.194641 
	C451.134888,504.194641 451.101746,504.109589 450.772217,504.114532 
	C448.995483,505.816498 447.548248,507.513550 446.101044,509.210602 
	C443.707855,511.703217 442.179321,509.849121 440.510864,508.173279 
	C424.247192,491.837769 407.962921,475.522705 391.678619,459.207703 
	C390.860046,458.387604 389.987793,457.621063 389.034424,456.512878 
	C389.884064,456.347534 391.049683,456.198883 391.762756,456.697449 
	C397.973541,461.040100 404.103302,465.498627 410.783508,470.258301 
	C412.206238,471.062592 413.102600,471.531372 413.998962,472.000183 
z"/>
<path fill="#028D4D" opacity="1.000000" stroke="none" 
	d="
M575.526428,524.968018 
	C574.218872,523.940735 572.208496,522.800964 572.199524,521.645569 
	C572.025146,499.347260 572.073792,477.047089 572.141846,454.747467 
	C572.144287,453.937286 572.810303,453.129120 573.548218,451.455688 
	C576.875549,458.419434 579.827698,464.562897 582.747803,470.721649 
	C584.662781,474.760468 586.664856,478.765503 588.386108,482.886688 
	C590.432312,487.785797 594.091492,489.955261 599.533325,490.332153 
	C595.900696,497.137543 591.965698,503.615326 588.030701,510.093109 
	C588.030701,510.093109 588.029480,510.022888 587.843933,510.026672 
	C587.470886,510.385437 587.283386,510.740417 587.095886,511.095398 
	C584.359497,514.634033 581.623108,518.172668 578.329041,522.025146 
	C577.540222,522.655151 577.309204,522.971375 577.078186,523.287598 
	C576.637268,523.807861 576.196350,524.328125 575.526428,524.968018 
z"/>
<path fill="#225DA0" opacity="1.000000" stroke="none" 
	d="
M494.806488,510.116638 
	C498.484375,505.884644 502.111420,501.606842 505.863159,497.441345 
	C507.553711,495.564392 509.492920,493.911346 511.790283,492.349487 
	C513.803833,496.415100 515.140137,500.387207 516.944214,504.134125 
	C518.942444,508.284302 521.708008,512.085510 523.488403,516.312866 
	C524.671570,519.122131 526.211975,520.256287 529.031250,520.412476 
	C527.362976,524.190308 525.712219,527.601562 523.773682,531.209595 
	C522.664062,533.774292 521.842163,536.142151 520.775574,538.770996 
	C520.343506,539.696838 520.156189,540.361816 519.991211,541.026733 
	C520.013611,541.026672 520.013550,540.982910 519.692627,541.108521 
	C517.651062,544.210144 515.930420,547.186157 513.971191,549.883179 
	C513.821594,547.487793 514.406494,545.238159 513.881653,543.286926 
	C513.122742,540.465393 511.926483,537.596680 510.232697,535.239685 
	C508.670624,533.065979 506.094391,531.651245 504.166901,529.702393 
	C501.615082,527.122375 499.366974,523.838440 495.749542,528.286865 
	C494.377258,524.172302 493.141388,520.466858 492.060913,516.460022 
	C492.463654,515.081665 492.711029,514.004761 492.958435,512.927795 
	C492.958435,512.927795 492.988464,512.986633 493.252502,512.893677 
	C493.946503,511.906067 494.376495,511.011353 494.806488,510.116638 
z"/>
<path fill="#2C4A8A" opacity="1.000000" stroke="none" 
	d="
M529.048828,520.045837 
	C526.211975,520.256287 524.671570,519.122131 523.488403,516.312866 
	C521.708008,512.085510 518.942444,508.284302 516.944214,504.134125 
	C515.140137,500.387207 513.803833,496.415100 512.091614,492.172455 
	C514.331116,488.612305 516.740356,485.421967 519.690308,481.969543 
	C520.477173,481.450470 520.723145,481.193451 520.969177,480.936432 
	C520.969177,480.936432 520.986877,480.999176 521.179932,480.863037 
	C521.646118,480.518890 521.842407,480.253967 521.961792,479.932098 
	C521.961792,479.932098 521.987122,479.993591 522.194702,479.797241 
	C522.559631,479.032990 522.716919,478.465057 522.874146,477.897125 
	C522.874146,477.897125 522.914185,477.868347 523.245728,477.868530 
	C524.671631,476.533691 525.766052,475.198700 526.860535,473.863739 
	C526.860535,473.863739 526.946106,473.877045 527.154907,473.795349 
	C527.629333,473.504852 527.828918,473.245239 527.962402,472.934784 
	C527.962402,472.934784 527.886108,472.949951 528.205688,472.889526 
	C528.973145,472.176331 529.420959,471.523560 529.868835,470.870789 
	C529.868835,470.870789 529.946350,470.883118 530.154541,470.797607 
	C530.628723,470.505157 530.827820,470.246704 530.960083,469.936707 
	C530.960083,469.936707 530.899719,469.980652 531.185791,469.828003 
	C531.933044,468.744110 532.394165,467.812927 532.855347,466.881714 
	C532.855286,466.881714 532.870300,466.909637 533.214233,466.857574 
	C533.986450,466.123932 534.414795,465.442352 534.843079,464.760742 
	C536.155212,463.597717 537.467346,462.434692 538.923889,462.031433 
	C539.028503,476.824707 538.988647,490.858154 538.632141,505.026001 
	C535.226562,510.122223 532.137695,515.084045 529.048828,520.045837 
z"/>
<path fill="#2C4A8A" opacity="1.000000" stroke="none" 
	d="
M528.772461,419.028076 
	C504.370453,426.423950 479.526367,432.496582 453.034973,435.031982 
	C447.758820,435.004669 443.381470,434.990173 439.004150,434.975647 
	C444.125977,434.019379 449.247833,433.063110 455.806580,431.838562 
	C453.686951,429.877472 451.983185,428.610016 450.689941,427.010620 
	C449.578186,425.635590 448.935181,423.881592 448.084900,422.295166 
	C449.512451,421.538971 450.914185,420.188171 452.371826,420.124908 
	C460.671509,419.764435 468.984558,419.711121 477.617126,419.304626 
	C477.941162,419.055878 478.323944,418.926453 479.009766,418.950470 
	C495.864227,418.944641 512.032898,418.914795 528.201538,418.884949 
	C528.201538,418.884949 528.593384,418.943451 528.772461,419.028076 
z"/>
<path fill="#0595CF" opacity="1.000000" stroke="none" 
	d="
M326.944763,326.545776 
	C322.865967,326.985260 318.553436,326.948669 314.250610,327.135620 
	C311.492340,327.255463 310.000549,327.981384 312.370636,331.055481 
	C313.313416,332.278290 313.380371,334.607361 313.059509,336.282074 
	C312.426453,339.586182 311.298889,342.718964 314.672882,345.316376 
	C315.214478,345.733276 315.076141,347.033295 315.252136,347.925110 
	C314.226959,348.014984 313.160889,348.331696 312.183655,348.155579 
	C307.921875,347.387543 303.685883,346.476257 298.853882,345.777649 
	C296.200928,344.646149 294.196228,343.240295 292.057739,342.081390 
	C282.794250,337.061493 273.491699,332.113800 264.203369,327.139832 
	C285.040619,326.814697 305.877869,326.489563 326.944763,326.545776 
z"/>
<path fill="#8DD7EB" opacity="1.000000" stroke="none" 
	d="
M263.833496,327.092072 
	C273.491699,332.113800 282.794250,337.061493 292.057739,342.081390 
	C294.196228,343.240295 296.200928,344.646149 298.611542,345.999756 
	C303.229736,348.790771 307.503601,351.520447 311.765442,354.789124 
	C309.065491,357.725281 306.405273,359.778473 302.393677,359.976227 
	C300.855743,360.052063 299.444763,362.702148 297.975952,364.179199 
	C286.514984,352.508942 275.044556,340.847992 263.635193,329.127563 
	C263.260284,328.742462 263.506805,327.752380 263.833496,327.092072 
z"/>
<path fill="#8DD7EB" opacity="1.000000" stroke="none" 
	d="
M533.707886,566.131104 
	C530.957703,574.239990 524.517700,579.572510 518.913391,585.467834 
	C511.504333,593.261658 503.818085,600.793335 496.184723,608.371033 
	C494.816193,609.729614 493.126892,610.765015 491.235291,611.533264 
	C491.661438,608.469238 492.438049,605.821716 493.441284,602.900024 
	C495.283905,597.882141 496.899902,593.138306 498.681976,588.093079 
	C499.633484,585.588501 500.418915,583.385254 501.433350,580.916138 
	C503.850311,575.504517 506.038330,570.358826 508.515015,565.278687 
	C509.304626,568.771851 509.805634,572.199341 510.342438,575.871704 
	C510.788116,575.270813 511.123352,574.818848 511.377014,574.476868 
	C512.467346,576.236023 513.589172,578.046021 514.713928,579.860779 
	C516.906311,578.566895 518.991882,576.386902 520.183105,576.797974 
	C525.207581,578.532349 526.717773,574.876953 529.102905,571.763489 
	C530.771667,569.706238 532.239807,567.918701 533.707886,566.131104 
z"/>
<path fill="#4DC1E8" opacity="1.000000" stroke="none" 
	d="
M533.808472,565.724609 
	C532.239807,567.918701 530.771667,569.706238 528.702454,571.778931 
	C516.516907,575.662354 513.114868,569.145752 512.409973,559.671021 
	C512.318665,558.443542 512.137695,557.222717 512.067322,555.657166 
	C512.827515,553.597717 513.518677,551.879944 514.209778,550.162170 
	C515.930420,547.186157 517.651062,544.210144 519.706421,541.507324 
	C521.301575,543.600281 522.237122,546.548584 523.885071,547.023071 
	C528.385376,548.318909 532.196106,549.534607 531.026917,555.186035 
	C533.698425,555.057434 535.744934,554.958862 537.791504,554.860291 
	C536.497375,558.346252 535.203186,561.832153 533.808472,565.724609 
z"/>
<path fill="#2C4A8A" opacity="1.000000" stroke="none" 
	d="
M473.050934,481.713531 
	C471.168365,481.645935 469.444885,481.277222 466.592377,480.666992 
	C467.344971,476.585510 468.089783,472.546417 468.927979,467.952362 
	C469.021423,467.397400 469.147644,467.097870 469.136261,467.118347 
	C469.124878,467.138794 469.174591,467.146576 469.174591,467.146576 
	C469.497620,467.081268 469.812195,466.987610 470.459229,466.931213 
	C470.882202,467.034302 470.964355,467.071747 471.046509,467.109161 
	C470.943909,466.969727 470.841309,466.830292 470.738708,466.690857 
	C486.667755,456.003754 502.594543,445.313263 518.542664,434.654724 
	C518.851257,434.448486 519.412048,434.619476 519.940918,434.931152 
	C518.935974,436.452820 517.845276,437.657745 516.130859,439.012329 
	C514.362000,440.413422 513.216736,441.664886 512.071472,442.916321 
	C512.071472,442.916321 511.615692,443.037140 511.158630,443.184753 
	C510.476868,443.578156 510.252197,443.824005 510.027527,444.069824 
	C510.027527,444.069824 510.102936,444.055573 509.731262,444.076172 
	C506.032928,444.735077 503.630219,446.172577 504.140778,450.130035 
	C504.140778,450.130035 504.058197,450.116486 503.847778,450.199463 
	C503.366577,450.489899 503.165894,450.751251 503.035278,451.066406 
	C503.035278,451.066406 503.005676,451.006714 502.820068,451.144531 
	C502.365173,451.490479 502.165771,451.751862 502.036163,452.066498 
	C502.036163,452.066498 501.995758,452.017334 501.777374,452.179260 
	C501.298523,452.637787 501.038086,452.934418 500.777649,453.231049 
	C495.732605,458.459045 490.711975,463.710907 485.634766,468.907501 
	C481.528534,473.110352 477.354156,477.246643 473.050934,481.713531 
z"/>
<path fill="#54C6EA" opacity="1.000000" stroke="none" 
	d="
M298.106018,364.481384 
	C299.444763,362.702148 300.855743,360.052063 302.393677,359.976227 
	C306.405273,359.778473 309.065491,357.725281 311.973572,355.051849 
	C316.997253,357.915375 321.800812,361.055237 326.801941,364.429535 
	C327.067902,365.145172 327.203522,366.046936 327.195282,366.048309 
	C321.216980,367.003662 317.000763,370.927704 312.614349,374.586090 
	C312.009766,375.090363 311.158295,375.298584 310.178040,375.898956 
	C306.035339,372.363892 302.135742,368.573730 298.106018,364.481384 
z"/>
<path fill="#0F7AB9" opacity="1.000000" stroke="none" 
	d="
M529.031250,520.412476 
	C532.137695,515.084045 535.226562,510.122223 538.859131,505.085236 
	C539.402893,505.010071 539.859375,505.110474 539.859375,505.110474 
	C540.097839,505.712921 540.336304,506.315369 540.036987,507.308594 
	C539.369385,509.508514 539.160095,511.316071 539.122803,513.127136 
	C538.924866,522.749146 538.770020,532.372009 538.322021,541.818481 
	C533.383057,538.099182 528.722229,534.555969 524.061462,531.012756 
	C525.712219,527.601562 527.362976,524.190308 529.031250,520.412476 
z"/>
<path fill="#0595CF" opacity="1.000000" stroke="none" 
	d="
M523.773682,531.209595 
	C528.722229,534.555969 533.383057,538.099182 538.495239,541.989624 
	C539.182007,542.565063 539.453796,542.734680 539.762146,542.845581 
	C539.166260,546.583740 538.570374,550.321960 537.882935,554.460205 
	C535.744934,554.958862 533.698425,555.057434 531.026917,555.186035 
	C532.196106,549.534607 528.385376,548.318909 523.885071,547.023071 
	C522.237122,546.548584 521.301575,543.600281 520.027283,541.381714 
	C520.013550,540.982910 520.013611,541.026672 520.257690,540.794556 
	C520.674683,539.878296 520.847473,539.194153 521.020264,538.510071 
	C521.842163,536.142151 522.664062,533.774292 523.773682,531.209595 
M525.492920,535.535156 
	C525.492920,535.535156 525.470093,535.482361 525.492920,535.535156 
z"/>
<path fill="#44A644" opacity="1.000000" stroke="none" 
	d="
M588.341553,509.937256 
	C591.965698,503.615326 595.900696,497.137543 599.940063,490.333313 
	C602.591675,486.199005 605.138916,482.391144 608.064453,478.160583 
	C608.678345,477.532074 608.863892,477.288147 608.999390,477.006104 
	C608.999390,477.006104 609.000000,476.999939 609.002991,476.999329 
	C611.427917,473.396332 613.849915,469.793976 616.593872,466.106934 
	C614.910522,470.075470 612.992126,474.174805 610.874695,478.168640 
	C608.860229,481.967987 606.637817,485.657135 604.506897,489.394714 
	C604.884155,489.696167 605.261475,489.997620 605.638733,490.299072 
	C606.593201,489.904236 607.547607,489.509399 608.822876,489.071014 
	C606.714172,491.926392 604.484070,495.026489 601.809387,497.678040 
	C597.580322,501.870544 593.053284,505.762360 588.341553,509.937256 
z"/>
<path fill="#4DC1E8" opacity="1.000000" stroke="none" 
	d="
M487.727844,613.013428 
	C487.470459,611.459534 486.990631,609.905884 486.988770,608.351685 
	C486.957245,582.128296 486.902588,555.904297 487.099823,529.682190 
	C487.125885,526.218872 488.503967,522.765747 489.610352,519.136719 
	C489.964783,518.965576 489.988007,518.992615 489.976929,519.400146 
	C489.291748,523.188965 488.123779,526.557739 488.038483,529.953735 
	C487.806000,539.208374 488.030884,548.474487 488.005310,558.229736 
	C487.991638,576.565308 488.047241,594.407227 488.002136,612.436890 
	C487.901398,612.624512 487.727844,613.013428 487.727844,613.013428 
z"/>
<path fill="#225DA0" opacity="1.000000" stroke="none" 
	d="
M527.933105,418.536133 
	C512.032898,418.914795 495.864227,418.944641 479.210938,418.931885 
	C479.442780,418.583618 480.159546,418.010712 480.875580,418.011627 
	C496.472046,418.031738 512.068359,418.115692 527.933105,418.536133 
z"/>
<path fill="#149E4C" opacity="1.000000" stroke="none" 
	d="
M451.076965,386.442871 
	C465.304047,386.197510 479.786713,386.311768 494.599731,386.663544 
	C480.397583,386.868195 465.865051,386.835358 451.076965,386.442871 
z"/>
<path fill="#225DA0" opacity="1.000000" stroke="none" 
	d="
M539.965698,504.641449 
	C539.859375,505.110474 539.402893,505.010071 539.175903,504.950867 
	C538.988647,490.858154 539.028503,476.824707 539.105225,462.315552 
	C539.457214,463.216614 540.038574,464.591919 540.045715,465.970215 
	C540.111023,478.703979 540.077148,491.438293 539.965698,504.641449 
z"/>
<path fill="#4DC1E8" opacity="1.000000" stroke="none" 
	d="
M539.881958,542.403381 
	C539.453796,542.734680 539.182007,542.565063 538.773499,542.165649 
	C538.770020,532.372009 538.924866,522.749146 539.122803,513.127136 
	C539.160095,511.316071 539.369385,509.508514 539.781372,507.418579 
	C540.042908,518.745605 540.022339,530.353394 539.881958,542.403381 
z"/>
<path fill="#225DA0" opacity="1.000000" stroke="none" 
	d="
M504.437012,449.990112 
	C503.630219,446.172577 506.032928,444.735077 509.738892,444.113770 
	C508.323212,446.037262 506.528229,447.943726 504.437012,449.990112 
z"/>
<path fill="#B2CE25" opacity="1.000000" stroke="none" 
	d="
M686.511780,412.014801 
	C688.006165,410.024475 689.792542,407.889954 691.804565,405.661011 
	C690.288086,407.667938 688.545959,409.769287 686.511780,412.014801 
z"/>
<path fill="#B2CE25" opacity="1.000000" stroke="none" 
	d="
M679.488281,419.028046 
	C681.283203,416.846252 683.372070,414.518494 685.810730,412.204468 
	C684.034424,414.439484 681.908386,416.660767 679.488281,419.028046 
z"/>
<path fill="#0F7AB9" opacity="1.000000" stroke="none" 
	d="
M493.214630,603.174133 
	C492.438049,605.821716 491.661438,608.469238 490.881287,611.489136 
	C490.588257,612.071716 490.298767,612.281982 489.658203,612.444031 
	C489.307159,612.395874 489.006500,612.006592 489.078613,611.651672 
	C490.420441,608.523315 491.690125,605.749878 493.023682,603.025635 
	C493.087555,603.074890 493.214630,603.174133 493.214630,603.174133 
z"/>
<path fill="#0F7AB9" opacity="1.000000" stroke="none" 
	d="
M454.450745,501.041077 
	C455.917847,499.501434 457.687958,497.813049 459.819092,496.136719 
	C458.371338,497.729980 456.562531,499.311157 454.450745,501.041077 
z"/>
<path fill="#0F7AB9" opacity="1.000000" stroke="none" 
	d="
M446.396973,509.066498 
	C447.548248,507.513550 448.995483,505.816498 450.815857,504.127991 
	C449.690308,505.731781 448.191620,507.327087 446.396973,509.066498 
z"/>
<path fill="#4DC1E8" opacity="1.000000" stroke="none" 
	d="
M492.640259,513.084595 
	C492.711029,514.004761 492.463654,515.081665 491.821259,516.647278 
	C490.946869,517.754822 490.467438,518.373718 489.988007,518.992615 
	C489.988007,518.992615 489.964783,518.965576 489.952087,518.953125 
	C490.733612,517.040894 491.527863,515.141174 492.640259,513.084595 
z"/>
<path fill="#B2CE25" opacity="1.000000" stroke="none" 
	d="
M666.490845,431.978241 
	C667.308594,430.749481 668.416199,429.398804 669.862549,428.118469 
	C669.061096,429.411285 667.920898,430.633789 666.490845,431.978241 
z"/>
<path fill="#B2CE25" opacity="1.000000" stroke="none" 
	d="
M675.477600,423.094360 
	C675.090393,422.738068 674.991333,422.261108 674.904053,421.416626 
	C675.776794,420.752563 676.637817,420.455994 677.838379,420.176331 
	C677.373840,421.120026 676.569763,422.046875 675.477600,423.094360 
z"/>
<path fill="#225DA0" opacity="1.000000" stroke="none" 
	d="
M526.564453,473.984558 
	C525.766052,475.198700 524.671631,476.533691 523.222046,477.861450 
	C524.000793,476.604584 525.134583,475.354980 526.564453,473.984558 
z"/>
<path fill="#B2CE25" opacity="1.000000" stroke="none" 
	d="
M715.509277,382.028687 
	C716.308289,380.837555 717.389893,379.510590 718.826782,378.197266 
	C718.052002,379.438232 716.921997,380.665527 715.509277,382.028687 
z"/>
<path fill="#225DA0" opacity="1.000000" stroke="none" 
	d="
M512.382202,442.857117 
	C513.216736,441.664886 514.362000,440.413422 515.848999,439.141937 
	C515.024841,440.347229 513.858948,441.572540 512.382202,442.857117 
z"/>
<path fill="#B2CE25" opacity="1.000000" stroke="none" 
	d="
M703.397949,393.998291 
	C703.895691,393.108795 704.694031,392.141418 705.842773,391.183960 
	C705.361633,392.102722 704.530090,393.011536 703.397949,393.998291 
z"/>
<path fill="#B2CE25" opacity="1.000000" stroke="none" 
	d="
M517.448486,326.028534 
	C516.749084,326.223267 515.694702,326.378632 514.441650,326.323151 
	C515.193237,326.071259 516.143311,326.030212 517.448486,326.028534 
z"/>
<path fill="#37A646" opacity="1.000000" stroke="none" 
	d="
M576.502563,427.937866 
	C576.339355,428.717072 575.891602,429.646637 575.137390,430.682281 
	C575.293396,429.888336 575.755737,428.988281 576.502563,427.937866 
z"/>
<path fill="#4DC1E8" opacity="1.000000" stroke="none" 
	d="
M494.510193,510.208069 
	C494.376495,511.011353 493.946503,511.906067 493.219482,512.895264 
	C493.352936,512.093018 493.783417,511.196228 494.510193,510.208069 
z"/>
<path fill="#225DA0" opacity="1.000000" stroke="none" 
	d="
M532.550171,467.002441 
	C532.394165,467.812927 531.933044,468.744110 531.163940,469.797729 
	C531.318970,468.987823 531.781982,468.055481 532.550171,467.002441 
z"/>
<path fill="#B2CE25" opacity="1.000000" stroke="none" 
	d="
M708.469360,389.058594 
	C708.647339,388.524902 709.086731,387.873688 709.855469,387.212830 
	C709.700134,387.782440 709.215393,388.361755 708.469360,389.058594 
z"/>
<path fill="#B2CE25" opacity="1.000000" stroke="none" 
	d="
M706.455566,391.073730 
	C706.634644,390.538147 707.076172,389.882172 707.848022,389.215637 
	C707.691589,389.787842 707.204834,390.370605 706.455566,391.073730 
z"/>
<path fill="#B2CE25" opacity="1.000000" stroke="none" 
	d="
M693.752319,404.051666 
	C693.695984,403.975464 693.989258,403.689392 694.011108,403.670044 
	C694.033020,403.650665 694.107117,403.923340 694.107117,403.923340 
	C694.107117,403.923340 693.808655,404.127869 693.752319,404.051666 
z"/>
<path fill="#225DA0" opacity="1.000000" stroke="none" 
	d="
M529.591675,470.969666 
	C529.420959,471.523560 528.973145,472.176331 528.197205,472.851562 
	C528.350891,472.272217 528.832642,471.670410 529.591675,470.969666 
z"/>
<path fill="#0F7AB9" opacity="1.000000" stroke="none" 
	d="
M451.403381,504.066620 
	C451.592194,503.514526 452.049530,502.834473 452.850403,502.148438 
	C452.686584,502.741180 452.179260,503.339905 451.403381,504.066620 
z"/>
<path fill="#225DA0" opacity="1.000000" stroke="none" 
	d="
M534.586304,464.906067 
	C534.414795,465.442352 533.986450,466.123932 533.228027,466.849731 
	C533.375122,466.279785 533.852356,465.665588 534.586304,464.906067 
z"/>
<path fill="#B2CE25" opacity="1.000000" stroke="none" 
	d="
M711.464600,386.065765 
	C711.641846,385.532318 712.079529,384.879974 712.846313,384.220581 
	C712.691956,384.791321 712.208496,385.369080 711.464600,386.065765 
z"/>
<path fill="#44A644" opacity="1.000000" stroke="none" 
	d="
M587.327087,510.988220 
	C587.283386,510.740417 587.470886,510.385437 587.878174,510.034454 
	C587.918091,510.319336 587.738159,510.600220 587.327087,510.988220 
z"/>
<path fill="#225DA0" opacity="1.000000" stroke="none" 
	d="
M522.581787,478.023743 
	C522.716919,478.465057 522.559631,479.032990 522.163025,479.787292 
	C522.045654,479.365906 522.167542,478.758118 522.581787,478.023743 
z"/>
<path fill="#0F7AB9" opacity="1.000000" stroke="none" 
	d="
M487.868988,613.239990 
	C487.727844,613.013428 487.901398,612.624512 488.225037,612.362915 
	C488.548645,612.101379 489.006500,612.006592 489.006500,612.006592 
	C489.006500,612.006592 489.307159,612.395874 489.439758,612.603333 
	C489.051636,613.029358 488.530884,613.247925 487.868988,613.239990 
z"/>
<path fill="#149E4C" opacity="1.000000" stroke="none" 
	d="
M577.325562,523.129456 
	C577.309204,522.971375 577.540222,522.655151 578.032471,522.195312 
	C578.053345,522.358154 577.813110,522.664734 577.325562,523.129456 
z"/>
<path fill="#B2CE25" opacity="1.000000" stroke="none" 
	d="
M710.394470,387.112793 
	C710.349548,386.934723 710.551208,386.651489 710.990173,386.249878 
	C711.032043,386.423584 710.836548,386.715637 710.394470,387.112793 
z"/>
<path fill="#B2CE25" opacity="1.000000" stroke="none" 
	d="
M713.399109,384.109344 
	C713.352051,383.931946 713.549377,383.654175 713.978027,383.258118 
	C714.020813,383.429565 713.832153,383.719269 713.399109,384.109344 
z"/>
<path fill="#B2CE25" opacity="1.000000" stroke="none" 
	d="
M714.401855,383.104797 
	C714.354614,382.926758 714.551697,382.650513 714.979736,382.257446 
	C715.022461,382.429291 714.834351,382.717926 714.401855,383.104797 
z"/>
<path fill="#0F7AB9" opacity="1.000000" stroke="none" 
	d="
M453.310944,502.043030 
	C453.231812,501.826080 453.429016,501.552307 453.849854,501.153259 
	C453.911438,501.347382 453.749359,501.666779 453.310944,502.043030 
z"/>
<path fill="#225DA0" opacity="1.000000" stroke="none" 
	d="
M501.087189,453.142426 
	C501.038086,452.934418 501.298523,452.637787 501.808350,452.186554 
	C501.837372,452.372559 501.617035,452.713165 501.087189,453.142426 
z"/>
<path fill="#B2CE25" opacity="1.000000" stroke="none" 
	d="
M671.330078,427.068604 
	C671.236328,426.839539 671.415710,426.539612 671.841675,426.138489 
	C671.926453,426.357452 671.764771,426.677582 671.330078,427.068604 
z"/>
<path fill="#37A646" opacity="1.000000" stroke="none" 
	d="
M577.648254,426.911865 
	C577.713379,427.110992 577.510742,427.388428 577.085815,427.799286 
	C577.035828,427.618530 577.208130,427.304382 577.648254,426.911865 
z"/>
<path fill="#B2CE25" opacity="1.000000" stroke="none" 
	d="
M670.325806,428.058655 
	C670.236694,427.828888 670.422913,427.536560 670.850220,427.140137 
	C670.927917,427.356049 670.764526,427.676056 670.325806,428.058655 
z"/>
<path fill="#B2CE25" opacity="1.000000" stroke="none" 
	d="
M672.331177,426.065308 
	C672.236389,425.834564 672.414978,425.535034 672.840698,425.135986 
	C672.926697,425.356476 672.765625,425.676544 672.331177,426.065308 
z"/>
<path fill="#B2CE25" opacity="1.000000" stroke="none" 
	d="
M673.330566,425.064819 
	C673.232117,424.829651 673.406860,424.526031 673.835327,424.130249 
	C673.927246,424.357513 673.765564,424.676971 673.330566,425.064819 
z"/>
<path fill="#225DA0" opacity="1.000000" stroke="none" 
	d="
M510.286591,444.010498 
	C510.252197,443.824005 510.476868,443.578156 510.925842,443.222198 
	C510.948669,443.391785 510.747162,443.671478 510.286591,444.010498 
z"/>
<path fill="#B2CE25" opacity="1.000000" stroke="none" 
	d="
M674.332275,424.064789 
	C674.229675,423.824432 674.400269,423.516571 674.830078,423.124420 
	C674.927979,423.359192 674.766663,423.678253 674.332275,424.064789 
z"/>
<path fill="#225DA0" opacity="1.000000" stroke="none" 
	d="
M503.305481,451.014709 
	C503.165894,450.751251 503.366577,450.489899 503.853516,450.158020 
	C503.904999,450.343384 503.740326,450.653198 503.305481,451.014709 
z"/>
<path fill="#225DA0" opacity="1.000000" stroke="none" 
	d="
M502.305817,452.014740 
	C502.165771,451.751862 502.365173,451.490479 502.850250,451.158569 
	C502.902557,451.344177 502.739014,451.653564 502.305817,452.014740 
z"/>
<path fill="#0F7AB9" opacity="1.000000" stroke="none" 
	d="
M460.295197,496.023132 
	C460.239746,495.817657 460.456787,495.556183 460.899841,495.170166 
	C460.939819,495.352814 460.753754,495.659973 460.295197,496.023132 
z"/>
<path fill="#B2CE25" opacity="1.000000" stroke="none" 
	d="
M678.382996,420.106750 
	C678.339783,419.930511 678.544067,419.648376 678.983643,419.243530 
	C679.022705,419.414124 678.826599,419.707489 678.382996,420.106750 
z"/>
<path fill="#225DA0" opacity="1.000000" stroke="none" 
	d="
M530.688965,469.983032 
	C530.827820,470.246704 530.628723,470.505157 530.149658,470.836548 
	C530.096985,470.650421 530.257385,470.339874 530.688965,469.983032 
z"/>
<path fill="#225DA0" opacity="1.000000" stroke="none" 
	d="
M527.692017,472.983948 
	C527.828918,473.245239 527.629333,473.504852 527.149719,473.838318 
	C527.097717,473.653046 527.259705,473.343079 527.692017,472.983948 
z"/>
<path fill="#37A646" opacity="1.000000" stroke="none" 
	d="
M578.648804,425.912018 
	C578.712769,426.111359 578.508728,426.388641 578.080750,426.798309 
	C578.031555,426.617126 578.206238,426.303558 578.648804,425.912018 
z"/>
<path fill="#225DA0" opacity="1.000000" stroke="none" 
	d="
M521.687256,479.976257 
	C521.842407,480.253967 521.646118,480.518890 521.152710,480.845062 
	C521.092590,480.648987 521.252686,480.334686 521.687256,479.976257 
z"/>
<path fill="#225DA0" opacity="1.000000" stroke="none" 
	d="
M520.688660,480.977112 
	C520.723145,481.193451 520.477173,481.450470 519.977417,481.800842 
	C519.951843,481.602081 520.179993,481.309937 520.688660,480.977112 
z"/>
<path fill="#0F7AB9" opacity="1.000000" stroke="none" 
	d="
M461.239777,495.008789 
	C461.169952,494.852112 461.329376,494.625671 461.660370,494.277405 
	C461.899139,494.501251 461.778168,494.762390 461.239777,495.008789 
z"/>
<path fill="#44A644" opacity="1.000000" stroke="none" 
	d="
M648.789795,381.604309 
	C646.210999,392.291412 644.029907,402.643494 641.024292,412.750366 
	C639.196106,418.897888 636.095459,424.666992 633.321411,430.852875 
	C631.748230,428.871124 630.448425,426.624817 629.075134,424.424438 
	C628.643311,423.732605 627.568604,423.181091 627.544006,422.536469 
	C627.305481,416.293823 621.236267,413.872620 618.889465,409.070801 
	C617.675110,406.586090 617.092651,403.783539 615.808289,401.343750 
	C611.850342,393.824921 607.535889,386.490662 603.693726,378.915466 
	C602.308594,376.184601 602.005249,372.925354 600.960938,369.995392 
	C599.995911,367.287842 599.289917,364.151733 597.441956,362.156403 
	C591.218140,355.436310 591.606812,352.981537 601.226746,349.756561 
	C599.170593,348.965942 597.844727,348.640045 596.719604,347.974762 
	C595.449280,347.223572 594.359497,346.167206 593.191162,345.243591 
	C594.598694,344.495941 595.937866,343.353027 597.429993,343.094940 
	C599.569458,342.724915 601.820496,343.000580 604.023926,343.000580 
	C603.989563,342.289856 603.955261,341.579163 603.920898,340.868439 
	C600.032288,341.214355 596.056030,341.160187 592.273010,341.988403 
	C584.067993,343.784729 575.901733,345.823883 567.831360,348.151398 
	C559.018921,350.693024 550.332764,353.672455 541.318115,356.682129 
	C536.216187,358.024414 531.248108,358.742615 526.590759,360.357269 
	C518.803467,363.057037 513.187073,359.458832 507.678192,354.878632 
	C505.556458,353.114594 503.363159,351.436676 501.095703,349.376892 
	C509.285187,347.704529 517.562012,346.235809 525.881958,345.076752 
	C539.313538,343.205566 552.743896,341.247162 566.230957,339.879791 
	C576.438171,338.844940 586.733093,338.674194 597.446655,338.100464 
	C598.693176,338.084442 599.481995,338.086823 601.106384,338.107910 
	C604.605652,338.118744 607.269287,338.110870 609.932983,338.103027 
	C612.045776,338.417786 614.161377,338.714508 616.270813,339.050354 
	C628.960266,341.070496 640.528503,345.087585 646.156860,357.996338 
	C649.357910,365.337891 650.723145,373.122345 648.789795,381.604309 
z"/>
<path fill="#75BC3C" opacity="1.000000" stroke="none" 
	d="
M609.645813,337.838654 
	C607.269287,338.110870 604.605652,338.118744 601.499390,338.104736 
	C603.824097,337.913330 606.591370,337.743805 609.645813,337.838654 
z"/>
<path fill="#44A644" opacity="1.000000" stroke="none" 
	d="
M619.776978,459.195923 
	C619.549500,460.728333 619.010925,462.441010 618.244995,464.063232 
	C618.500305,462.440613 618.983093,460.908447 619.776978,459.195923 
z"/>
<path fill="#44A644" opacity="1.000000" stroke="none" 
	d="
M632.824097,432.145599 
	C632.851807,432.279266 632.672729,432.565613 632.295654,433.013855 
	C632.270935,432.883301 632.444092,432.590790 632.824097,432.145599 
z"/>
<path fill="#149E4C" opacity="1.000000" stroke="none" 
	d="
M584.488159,421.520782 
	C584.474487,421.489624 584.501831,421.551941 584.488159,421.520782 
z"/>
<path fill="#44A644" opacity="1.000000" stroke="none" 
	d="
M617.670776,465.165344 
	C617.744019,465.311554 617.594055,465.525452 617.212585,465.798218 
	C617.155334,465.660156 617.310791,465.452148 617.670776,465.165344 
z"/>
<path fill="#54C6EA" opacity="1.000000" stroke="none" 
	d="
M438.554535,435.020203 
	C443.381470,434.990173 447.758820,435.004669 452.603027,435.073761 
	C456.854401,435.722748 460.638855,436.317169 465.777435,437.124237 
	C463.209045,438.773285 461.489685,439.877197 458.943909,441.511688 
	C460.603119,442.118805 461.764648,442.797699 462.991119,442.948669 
	C468.347565,443.608185 470.140900,445.954742 469.720734,451.489166 
	C469.613770,452.897827 469.937042,454.848694 470.852203,455.737030 
	C474.765320,459.535461 474.855713,460.669098 470.824371,464.128296 
	C470.118378,464.734100 469.686157,465.658936 469.151062,466.791504 
	C469.174591,467.146576 469.124878,467.138794 468.784485,467.091400 
	C467.634918,467.389740 466.825714,467.735474 466.016541,468.081238 
	C466.016541,468.081268 466.018524,468.013550 465.716919,468.087708 
	C464.974884,468.841461 464.534424,469.521088 464.093933,470.200684 
	C457.017853,474.117493 450.113159,478.411072 442.773895,481.749207 
	C440.164581,482.936005 436.236755,482.556305 433.374725,481.559570 
	C428.407501,479.829773 423.801422,477.063019 418.789093,474.465942 
	C420.286224,472.746521 422.038177,471.292328 423.790100,469.838104 
	C423.377686,469.704590 422.965302,469.571106 422.552887,469.437592 
	C422.552887,466.692566 422.579163,463.947083 422.533295,461.202820 
	C422.522644,460.564575 422.469635,459.750977 422.091278,459.322571 
	C418.722687,455.507904 421.176514,449.083252 416.112000,446.030945 
	C415.767273,445.823151 415.446716,445.089600 415.543579,444.709869 
	C416.543549,440.788391 417.631805,436.889435 419.060913,432.841736 
	C425.652466,433.487762 431.878693,434.276276 438.554535,435.020203 
z"/>
<path fill="#54C6EA" opacity="1.000000" stroke="none" 
	d="
M414.191376,471.804504 
	C413.102600,471.531372 412.206238,471.062592 411.115326,470.360718 
	C411.718018,469.758820 412.515259,469.389984 413.656250,469.010559 
	C414.000000,469.000000 414.002441,469.001831 414.002441,469.001831 
	C414.129578,469.870819 414.256683,470.739838 414.191376,471.804504 
z"/>
<path fill="#54C6EA" opacity="1.000000" stroke="none" 
	d="
M413.999084,468.998871 
	C414.342285,468.541748 414.686371,468.085754 415.030457,467.629761 
	C415.144775,467.734344 415.259125,467.838898 415.373474,467.943481 
	C415.080322,468.261993 414.787140,468.580505 414.248199,468.950409 
	C414.002441,469.001831 414.000000,469.000000 413.999084,468.998871 
z"/>
<path fill="#37A646" opacity="1.000000" stroke="none" 
	d="
M608.811035,477.139801 
	C608.863892,477.288147 608.678345,477.532074 608.253906,477.869598 
	C608.200073,477.719696 608.385925,477.477081 608.811035,477.139801 
z"/>
<path fill="#8DD7EB" opacity="1.000000" stroke="none" 
	d="
M464.400208,470.089111 
	C464.534424,469.521088 464.974884,468.841461 465.745117,468.106506 
	C465.618744,468.693329 465.162598,469.335449 464.400208,470.089111 
z"/>
<path fill="#8DD7EB" opacity="1.000000" stroke="none" 
	d="
M466.368683,468.234131 
	C466.825714,467.735474 467.634918,467.389740 468.795898,467.070923 
	C469.147644,467.097870 469.021423,467.397400 468.967712,467.550110 
	C468.182983,467.930908 467.451904,468.158966 466.368683,468.234131 
z"/>
<path fill="#0F7AB9" opacity="1.000000" stroke="none" 
	d="
M489.976929,519.400146 
	C490.467438,518.373718 490.946869,517.754822 491.665894,516.948669 
	C493.141388,520.466858 494.377258,524.172302 495.749542,528.286865 
	C499.366974,523.838440 501.615082,527.122375 504.166901,529.702393 
	C506.094391,531.651245 508.670624,533.065979 510.232697,535.239685 
	C511.926483,537.596680 513.122742,540.465393 513.881653,543.286926 
	C514.406494,545.238159 513.821594,547.487793 513.971191,549.883179 
	C513.518677,551.879944 512.827515,553.597717 511.905334,555.967163 
	C510.524963,559.483521 509.375671,562.348328 508.226379,565.213074 
	C506.038330,570.358826 503.850311,575.504517 501.377075,580.867493 
	C501.091858,581.084717 500.980225,580.986328 500.985413,580.576782 
	C501.350739,578.048828 501.952637,575.936340 502.004333,573.810486 
	C502.058167,571.596191 502.421204,568.433838 501.181183,567.319702 
	C497.175598,563.720825 492.495026,560.873230 488.074585,557.736084 
	C488.030884,548.474487 487.806000,539.208374 488.038483,529.953735 
	C488.123779,526.557739 489.291748,523.188965 489.976929,519.400146 
z"/>
<path fill="#4DC1E8" opacity="1.000000" stroke="none" 
	d="
M520.775574,538.770996 
	C520.847473,539.194153 520.674683,539.878296 520.235352,540.794556 
	C520.156189,540.361816 520.343506,539.696838 520.775574,538.770996 
z"/>
<path fill="#54C6EA" opacity="1.000000" stroke="none" 
	d="
M508.515015,565.278687 
	C509.375671,562.348328 510.524963,559.483521 511.836243,556.308838 
	C512.137695,557.222717 512.318665,558.443542 512.409973,559.671021 
	C513.114868,569.145752 516.516907,575.662354 528.501709,572.048584 
	C526.717773,574.876953 525.207581,578.532349 520.183105,576.797974 
	C518.991882,576.386902 516.906311,578.566895 514.713928,579.860779 
	C513.589172,578.046021 512.467346,576.236023 511.377014,574.476868 
	C511.123352,574.818848 510.788116,575.270813 510.342438,575.871704 
	C509.805634,572.199341 509.304626,568.771851 508.515015,565.278687 
z"/>
<path fill="#0F7AB9" opacity="1.000000" stroke="none" 
	d="
M498.515900,588.394470 
	C496.899902,593.138306 495.283905,597.882141 493.441284,602.900024 
	C493.214630,603.174133 493.087555,603.074890 493.031433,602.622070 
	C494.649139,597.445618 496.322968,592.721924 498.122467,588.102722 
	C498.248169,588.207153 498.515900,588.394470 498.515900,588.394470 
z"/>
<path fill="#0F7AB9" opacity="1.000000" stroke="none" 
	d="
M501.148132,581.133423 
	C500.418915,583.385254 499.633484,585.588501 498.681976,588.093079 
	C498.515900,588.394470 498.248169,588.207153 498.126465,587.724182 
	C498.996582,585.156250 499.988434,583.071289 500.980225,580.986328 
	C500.980225,580.986328 501.091858,581.084717 501.148132,581.133423 
z"/>
<path fill="#225DA0" opacity="1.000000" stroke="none" 
	d="
M470.717133,466.731934 
	C470.841309,466.830292 470.943909,466.969727 471.046509,467.109161 
	C470.964355,467.071747 470.882202,467.034302 470.703522,466.898926 
	C470.606995,466.800964 470.695557,466.773041 470.717133,466.731934 
z"/>
<path fill="#0F7AB9" opacity="1.000000" stroke="none" 
	d="
M525.481506,535.508789 
	C525.470093,535.482361 525.492920,535.535156 525.481506,535.508789 
z"/>
<path fill="#0595CF" opacity="1.000000" stroke="none" 
	d="
M500.985443,580.576782 
	C499.988434,583.071289 498.996582,585.156250 498.000763,587.619751 
	C496.322968,592.721924 494.649139,597.445618 492.967590,602.572876 
	C491.690125,605.749878 490.420441,608.523315 489.078613,611.651672 
	C489.006500,612.006592 488.548645,612.101379 488.325745,612.175293 
	C488.047241,594.407227 487.991638,576.565308 488.005310,558.229736 
	C492.495026,560.873230 497.175598,563.720825 501.181183,567.319702 
	C502.421204,568.433838 502.058167,571.596191 502.004333,573.810486 
	C501.952637,575.936340 501.350739,578.048828 500.985443,580.576782 
z"/>
</svg>